# xmcd
#
# Track frame offsets: 
#        150
#        30863
#        54290
#        74831
#        97942
#        118650
#        144890
#        162074
#        194583
#
# Disc length: 2878 seconds
#
# Revision: 2
# Processed by: cddbd v1.5.2PL0 Copyright (c) Steve Scherf et al.
# Submitted via: ExactAudioCopyFreeDBPlugin 1.0
#
DISCID=710b3c09
DTITLE=Prince Phillip Mitchell - Top Of The Line
DYEAR=1979
DGENRE=Soul
TTITLE0=Top Of The Line
TTITLE1=Use Your Body
TTITLE2=Highlight Of My Life
TTITLE3=In Between Lovers
TTITLE4=I'm So Happy
TTITLE5=If It Ain't Love, It'll Go Away 
TTITLE6=Paying The Price
TTITLE7=Let's Get Wet
TTITLE8=Take Me Away (Instumental)
EXTD=
EXTT0=
EXTT1=
EXTT2=
EXTT3=
EXTT4=
EXTT5=
EXTT6=
EXTT7=
EXTT8=
PLAYORDER=
